ffmpeg started on 2025-06-07 at 16:54:28
Report written to "D:\Convert\FFMetrics\reports\ssim_report-6.txt"
Log level: 32
Command line:
ffmpeg -hide_banner -nostdin -i "G:\\\xc0\xed\xe8\xec\xe5\\\xce\xed\xe3\xee\xe8\xed\xe3\xe8\\!_36_\xce\xf1\xe5\xed\xfc_2024\\DreamCast\\\xd6\xe8\xea\xeb \xe8\xf1\xf2\xee\xf0\xe8\xe9 - \xcc\xe5\xe6\xf1\xe5\xe7\xee\xed\xfc\xe5 \xe8 \xf1\xe5\xe7\xee\xed \xec\xee\xed\xf1\xf2\xf0\xee\xe2\\DC_Monogatari_Series_Off_and_Monster_Season_12_Telegram_HEVC.mkv" -i "G:\\\xc0\xed\xe8\xec\xe5\\\xce\xed\xe3\xee\xe8\xed\xe3\xe8\\!_36_\xce\xf1\xe5\xed\xfc_2024\\DreamCast\\\xd6\xe8\xea\xeb \xe8\xf1\xf2\xee\xf0\xe8\xe9 - \xcc\xe5\xe6\xf1\xe5\xe7\xee\xed\xfc\xe5 \xe8 \xf1\xe5\xe7\xee\xed \xec\xee\xed\xf1\xf2\xf0\xee\xe2\\DC_Monogatari_Series_Off_and_Monster_Season_12_Telegram.mp4" -lavfi "[0:v]settb=AVTB,setpts=PTS-STARTPTS,format=pix_fmts=yuv420p10,fps=24000/1001,scale=1920:1080:flags=bicubic[main];[1:v]settb=AVTB,setpts=PTS-STARTPTS,format=pix_fmts=yuv420p,fps=24000/1001,scale=1920:1080:flags=bicubic[ref];[main][ref]ssim=eof_action=endall:stats_file='D\\:/Convert/FFMetrics/logs/ssim_logfile-6.txt'" -f null -
Input #0, matroska,webm, from 'G:\Аниме\Онгоинги\!_36_Осень_2024\DreamCast\Цикл историй - Межсезонье и сезон монстров\DC_Monogatari_Series_Off_and_Monster_Season_12_Telegram_HEVC.mkv':
  Metadata:
    COMPATIBLE_BRANDS: isomiso2avc1mp41
    MAJOR_BRAND     : isom
    MINOR_VERSION   : 512
    ENCODER         : Lavf61.7.100
  Duration: 00:24:41.64, start: -0.021000, bitrate: 1554 kb/s
  Stream #0:0: Video: hevc (Main 10), yuv420p10le(tv, bt709, progressive), 1920x1080 [SAR 1:1 DAR 16:9], 23.98 fps, 23.98 tbr, 1k tbn (default)
      Metadata:
        HANDLER_NAME    : VideoHandler
        VENDOR_ID       : [0][0][0][0]
        ENCODER         : Lavc61.19.100 libx265
        BPS             : 1355319
        DURATION        : 00:24:41.479708333
        NUMBER_OF_FRAMES: 35520
        NUMBER_OF_BYTES : 250984580
        _STATISTICS_WRITING_APP: mkvpropedit v66.0.0 ('Josie') 64-bit
        _STATISTICS_WRITING_DATE_UTC: 2025-06-05 12:28:01
        _STATISTICS_TAGS: BPS DURATION NUMBER_OF_FRAMES NUMBER_OF_BYTES
  Stream #0:1: Audio: aac (LC), 48000 Hz, stereo, fltp (default)
      Metadata:
        HANDLER_NAME    : SoundHandler
        VENDOR_ID       : [0][0][0][0]
        ENCODER         : Lavc61.19.100 aac
        BPS             : 194902
        DURATION        : 00:24:41.642000000
        NUMBER_OF_FRAMES: 69453
        NUMBER_OF_BYTES : 36097035
        _STATISTICS_WRITING_APP: mkvpropedit v66.0.0 ('Josie') 64-bit
        _STATISTICS_WRITING_DATE_UTC: 2025-06-05 12:28:01
        _STATISTICS_TAGS: BPS DURATION NUMBER_OF_FRAMES NUMBER_OF_BYTES
Input #1, mov,mp4,m4a,3gp,3g2,mj2, from 'G:\Аниме\Онгоинги\!_36_Осень_2024\DreamCast\Цикл историй - Межсезонье и сезон монстров\DC_Monogatari_Series_Off_and_Monster_Season_12_Telegram.mp4':
  Metadata:
    major_brand     : isom
    minor_version   : 512
    compatible_brands: isomiso2avc1mp41
    encoder         : Lavf61.1.100
  Duration: 00:24:41.61, start: 0.000000, bitrate: 3496 kb/s
  Stream #1:0[0x1](und): Video: h264 (High) (avc1 / 0x31637661), yuv420p(tv, bt709, progressive), 1920x1080 [SAR 1:1 DAR 16:9], 3349 kb/s, 23.98 fps, 23.98 tbr, 24k tbn (default)
      Metadata:
        handler_name    : VideoHandler
        vendor_id       : [0][0][0][0]
        encoder         : Lavc61.3.100 h264_qsv
  Stream #1:1[0x2](und): Audio: aac (HE-AACv2) (mp4a / 0x6134706D), 48000 Hz, stereo, fltp, 144 kb/s (default)
      Metadata:
        handler_name    : SoundHandler
        vendor_id       : [0][0][0][0]
Stream mapping:
  Stream #0:0 (hevc) -> settb:default
  Stream #1:0 (h264) -> settb:default
  ssim:default -> Stream #0:0 (wrapped_avframe)
  Stream #0:1 -> #0:1 (aac (native) -> pcm_s16le (native))
Output #0, null, to 'pipe:':
  Metadata:
    COMPATIBLE_BRANDS: isomiso2avc1mp41
    MAJOR_BRAND     : isom
    MINOR_VERSION   : 512
    encoder         : Lavf61.7.100
  Stream #0:0: Video: wrapped_avframe, yuv420p10le(tv, bt709, progressive), 1920x1080 [SAR 1:1 DAR 16:9], q=2-31, 200 kb/s, 23.98 fps, 23.98 tbn
      Metadata:
        encoder         : Lavc61.19.100 wrapped_avframe
  Stream #0:1: Audio: pcm_s16le, 48000 Hz, stereo, s16, 1536 kb/s (default)
      Metadata:
        HANDLER_NAME    : SoundHandler
        VENDOR_ID       : [0][0][0][0]
        _STATISTICS_TAGS: BPS DURATION NUMBER_OF_FRAMES NUMBER_OF_BYTES
        BPS             : 194902
        DURATION        : 00:24:41.642000000
        NUMBER_OF_FRAMES: 69453
        NUMBER_OF_BYTES : 36097035
        _STATISTICS_WRITING_APP: mkvpropedit v66.0.0 ('Josie') 64-bit
        _STATISTICS_WRITING_DATE_UTC: 2025-06-05 12:28:01
        encoder         : Lavc61.19.100 pcm_s16le
frame=  186 fps=0.0 q=-0.0 size=N/A time=00:00:07.75 bitrate=N/A speed=14.8x    frame=  365 fps=353 q=-0.0 size=N/A time=00:00:15.22 bitrate=N/A speed=14.7x    frame=  585 fps=379 q=-0.0 size=N/A time=00:00:24.39 bitrate=N/A speed=15.8x    frame=  787 fps=380 q=-0.0 size=N/A time=00:00:32.82 bitrate=N/A speed=15.9x    frame= 1026 fps=398 q=-0.0 size=N/A time=00:00:42.79 bitrate=N/A speed=16.6x    frame= 1270 fps=411 q=-0.0 size=N/A time=00:00:52.96 bitrate=N/A speed=17.1x    frame= 1533 fps=424 q=-0.0 size=N/A time=00:01:03.93 bitrate=N/A speed=17.7x    frame= 1781 fps=432 q=-0.0 size=N/A time=00:01:14.28 bitrate=N/A speed=  18x    frame= 2031 fps=438 q=-0.0 size=N/A time=00:01:24.70 bitrate=N/A speed=18.3x    frame= 2289 fps=444 q=-0.0 size=N/A time=00:01:35.47 bitrate=N/A speed=18.5x    frame= 2533 fps=447 q=-0.0 size=N/A time=00:01:45.64 bitrate=N/A speed=18.6x    frame= 2757 fps=445 q=-0.0 size=N/A time=00:01:54.98 bitrate=N/A speed=18.6x    frame= 2985 fps=445 q=-0.0 size=N/A time=00:02:04.49 bitrate=N/A speed=18.6x    frame= 3203 fps=443 q=-0.0 size=N/A time=00:02:13.59 bitrate=N/A speed=18.5x    frame= 3424 fps=443 q=-0.0 size=N/A time=00:02:22.80 bitrate=N/A speed=18.5x    frame= 3571 fps=433 q=-0.0 size=N/A time=00:02:28.94 bitrate=N/A speed=  18x    frame= 3785 fps=432 q=-0.0 size=N/A time=00:02:37.86 bitrate=N/A speed=  18x    frame= 4050 fps=436 q=-0.0 size=N/A time=00:02:48.91 bitrate=N/A speed=18.2x    frame= 4327 fps=441 q=-0.0 size=N/A time=00:03:00.47 bitrate=N/A speed=18.4x    frame= 4571 fps=443 q=-0.0 size=N/A time=00:03:10.64 bitrate=N/A speed=18.5x    frame= 4836 fps=446 q=-0.0 size=N/A time=00:03:21.70 bitrate=N/A speed=18.6x    frame= 5098 fps=449 q=-0.0 size=N/A time=00:03:32.62 bitrate=N/A speed=18.7x    frame= 5353 fps=451 q=-0.0 size=N/A time=00:03:43.26 bitrate=N/A speed=18.8x    frame= 5649 fps=456 q=-0.0 size=N/A time=00:03:55.61 bitrate=N/A speed=  19x    frame= 5929 fps=460 q=-0.0 size=N/A time=00:04:07.28 bitrate=N/A speed=19.2x    frame= 6182 fps=461 q=-0.0 size=N/A time=00:04:17.84 bitrate=N/A speed=19.2x    frame= 6447 fps=463 q=-0.0 size=N/A time=00:04:28.89 bitrate=N/A speed=19.3x    frame= 6711 fps=464 q=-0.0 size=N/A time=00:04:39.90 bitrate=N/A speed=19.4x    frame= 6957 fps=465 q=-0.0 size=N/A time=00:04:50.16 bitrate=N/A speed=19.4x    frame= 7210 fps=466 q=-0.0 size=N/A time=00:05:00.71 bitrate=N/A speed=19.4x    frame= 7479 fps=467 q=-0.0 size=N/A time=00:05:11.93 bitrate=N/A speed=19.5x    frame= 7752 fps=469 q=-0.0 size=N/A time=00:05:23.32 bitrate=N/A speed=19.6x    frame= 8008 fps=470 q=-0.0 size=N/A time=00:05:34.00 bitrate=N/A speed=19.6x    frame= 8235 fps=469 q=-0.0 size=N/A time=00:05:43.46 bitrate=N/A speed=19.6x    frame= 8462 fps=468 q=-0.0 size=N/A time=00:05:52.93 bitrate=N/A speed=19.5x    frame= 8691 fps=468 q=-0.0 size=N/A time=00:06:02.48 bitrate=N/A speed=19.5x    frame= 8963 fps=469 q=-0.0 size=N/A time=00:06:13.83 bitrate=N/A speed=19.6x    frame= 9219 fps=470 q=-0.0 size=N/A time=00:06:24.50 bitrate=N/A speed=19.6x    frame= 9495 fps=472 q=-0.0 size=N/A time=00:06:36.02 bitrate=N/A speed=19.7x    frame= 9762 fps=473 q=-0.0 size=N/A time=00:06:47.15 bitrate=N/A speed=19.7x    frame=10002 fps=473 q=-0.0 size=N/A time=00:06:57.16 bitrate=N/A speed=19.7x    frame=10243 fps=472 q=-0.0 size=N/A time=00:07:07.21 bitrate=N/A speed=19.7x    frame=10490 fps=472 q=-0.0 size=N/A time=00:07:17.52 bitrate=N/A speed=19.7x    frame=10711 fps=471 q=-0.0 size=N/A time=00:07:26.73 bitrate=N/A speed=19.7x    frame=10883 fps=468 q=-0.0 size=N/A time=00:07:33.91 bitrate=N/A speed=19.5x    frame=11140 fps=469 q=-0.0 size=N/A time=00:07:44.63 bitrate=N/A speed=19.6x    frame=11410 fps=470 q=-0.0 size=N/A time=00:07:55.89 bitrate=N/A speed=19.6x    frame=11679 fps=471 q=-0.0 size=N/A time=00:08:07.11 bitrate=N/A speed=19.7x    frame=11970 fps=473 q=-0.0 size=N/A time=00:08:19.24 bitrate=N/A speed=19.7x    frame=12261 fps=475 q=-0.0 size=N/A time=00:08:31.38 bitrate=N/A speed=19.8x    frame=12526 fps=476 q=-0.0 size=N/A time=00:08:42.43 bitrate=N/A speed=19.8x    frame=12794 fps=477 q=-0.0 size=N/A time=00:08:53.61 bitrate=N/A speed=19.9x    frame=13064 fps=477 q=-0.0 size=N/A time=00:09:04.87 bitrate=N/A speed=19.9x    frame=13340 fps=479 q=-0.0 size=N/A time=00:09:16.38 bitrate=N/A speed=  20x    frame=13584 fps=478 q=-0.0 size=N/A time=00:09:26.56 bitrate=N/A speed=  20x    frame=13820 fps=478 q=-0.0 size=N/A time=00:09:36.40 bitrate=N/A speed=19.9x    frame=14072 fps=478 q=-0.0 size=N/A time=00:09:46.91 bitrate=N/A speed=19.9x    frame=14318 fps=478 q=-0.0 size=N/A time=00:09:57.17 bitrate=N/A speed=19.9x    frame=14564 fps=478 q=-0.0 size=N/A time=00:10:07.44 bitrate=N/A speed=19.9x    frame=14850 fps=479 q=-0.0 size=N/A time=00:10:19.36 bitrate=N/A speed=  20x    frame=15117 fps=480 q=-0.0 size=N/A time=00:10:30.50 bitrate=N/A speed=  20x    frame=15358 fps=480 q=-0.0 size=N/A time=00:10:40.55 bitrate=N/A speed=  20x    frame=15629 fps=481 q=-0.0 size=N/A time=00:10:51.85 bitrate=N/A speed=  20x    frame=15879 fps=481 q=-0.0 size=N/A time=00:11:02.28 bitrate=N/A speed=20.1x    frame=16118 fps=480 q=-0.0 size=N/A time=00:11:12.25 bitrate=N/A speed=  20x    frame=16306 fps=479 q=-0.0 size=N/A time=00:11:20.09 bitrate=N/A speed=  20x    frame=16518 fps=478 q=-0.0 size=N/A time=00:11:28.93 bitrate=N/A speed=19.9x    frame=16771 fps=478 q=-0.0 size=N/A time=00:11:39.49 bitrate=N/A speed=19.9x    frame=17014 fps=478 q=-0.0 size=N/A time=00:11:49.62 bitrate=N/A speed=19.9x    frame=17281 fps=478 q=-0.0 size=N/A time=00:12:00.76 bitrate=N/A speed=  20x    frame=17549 fps=479 q=-0.0 size=N/A time=00:12:11.93 bitrate=N/A speed=  20x    frame=17834 fps=480 q=-0.0 size=N/A time=00:12:23.82 bitrate=N/A speed=  20x    frame=18128 fps=481 q=-0.0 size=N/A time=00:12:36.08 bitrate=N/A speed=20.1x    frame=18359 fps=481 q=-0.0 size=N/A time=00:12:45.72 bitrate=N/A speed=20.1x    frame=18630 fps=481 q=-0.0 size=N/A time=00:12:57.02 bitrate=N/A speed=20.1x    frame=18915 fps=482 q=-0.0 size=N/A time=00:13:08.91 bitrate=N/A speed=20.1x    frame=19194 fps=483 q=-0.0 size=N/A time=00:13:20.54 bitrate=N/A speed=20.1x    frame=19470 fps=484 q=-0.0 size=N/A time=00:13:32.06 bitrate=N/A speed=20.2x    frame=19722 fps=484 q=-0.0 size=N/A time=00:13:42.57 bitrate=N/A speed=20.2x    frame=19992 fps=484 q=-0.0 size=N/A time=00:13:53.83 bitrate=N/A speed=20.2x    frame=20221 fps=484 q=-0.0 size=N/A time=00:14:03.38 bitrate=N/A speed=20.2x    frame=20494 fps=484 q=-0.0 size=N/A time=00:14:14.77 bitrate=N/A speed=20.2x    frame=20752 fps=484 q=-0.0 size=N/A time=00:14:25.53 bitrate=N/A speed=20.2x    frame=21023 fps=485 q=-0.0 size=N/A time=00:14:36.83 bitrate=N/A speed=20.2x    frame=21289 fps=485 q=-0.0 size=N/A time=00:14:47.92 bitrate=N/A speed=20.2x    frame=21536 fps=485 q=-0.0 size=N/A time=00:14:58.23 bitrate=N/A speed=20.2x    frame=21798 fps=485 q=-0.0 size=N/A time=00:15:09.15 bitrate=N/A speed=20.2x    frame=22071 fps=486 q=-0.0 size=N/A time=00:15:20.54 bitrate=N/A speed=20.3x    frame=22350 fps=487 q=-0.0 size=N/A time=00:15:32.18 bitrate=N/A speed=20.3x    frame=22625 fps=487 q=-0.0 size=N/A time=00:15:43.65 bitrate=N/A speed=20.3x    frame=22892 fps=488 q=-0.0 size=N/A time=00:15:54.78 bitrate=N/A speed=20.3x    frame=23079 fps=486 q=-0.0 size=N/A time=00:16:02.58 bitrate=N/A speed=20.3x    frame=23244 fps=484 q=-0.0 size=N/A time=00:16:09.46 bitrate=N/A speed=20.2x    frame=23413 fps=483 q=-0.0 size=N/A time=00:16:16.51 bitrate=N/A speed=20.1x    frame=23667 fps=483 q=-0.0 size=N/A time=00:16:27.11 bitrate=N/A speed=20.1x    frame=23928 fps=483 q=-0.0 size=N/A time=00:16:37.99 bitrate=N/A speed=20.1x    frame=24136 fps=482 q=-0.0 size=N/A time=00:16:46.67 bitrate=N/A speed=20.1x    frame=24387 fps=482 q=-0.0 size=N/A time=00:16:57.14 bitrate=N/A speed=20.1x    frame=24588 fps=481 q=-0.0 size=N/A time=00:17:05.52 bitrate=N/A speed=20.1x    frame=24852 fps=482 q=-0.0 size=N/A time=00:17:16.53 bitrate=N/A speed=20.1x    frame=25086 fps=481 q=-0.0 size=N/A time=00:17:26.29 bitrate=N/A speed=20.1x    frame=25342 fps=481 q=-0.0 size=N/A time=00:17:36.97 bitrate=N/A speed=20.1x    frame=25601 fps=482 q=-0.0 size=N/A time=00:17:47.77 bitrate=N/A speed=20.1x    frame=25839 fps=482 q=-0.0 size=N/A time=00:17:57.70 bitrate=N/A speed=20.1x    frame=26083 fps=481 q=-0.0 size=N/A time=00:18:07.87 bitrate=N/A speed=20.1x    frame=26329 fps=481 q=-0.0 size=N/A time=00:18:18.13 bitrate=N/A speed=20.1x    frame=26581 fps=482 q=-0.0 size=N/A time=00:18:28.64 bitrate=N/A speed=20.1x    frame=26825 fps=481 q=-0.0 size=N/A time=00:18:38.82 bitrate=N/A speed=20.1x    frame=27033 fps=481 q=-0.0 size=N/A time=00:18:47.50 bitrate=N/A speed=20.1x    frame=27291 fps=481 q=-0.0 size=N/A time=00:18:58.26 bitrate=N/A speed=20.1x    frame=27560 fps=481 q=-0.0 size=N/A time=00:19:09.48 bitrate=N/A speed=20.1x    frame=27825 fps=482 q=-0.0 size=N/A time=00:19:20.53 bitrate=N/A speed=20.1x    frame=28062 fps=481 q=-0.0 size=N/A time=00:19:30.41 bitrate=N/A speed=20.1x    frame=28140 fps=478 q=-0.0 size=N/A time=00:19:33.67 bitrate=N/A speed=  20x    frame=28335 fps=478 q=-0.0 size=N/A time=00:19:41.80 bitrate=N/A speed=19.9x    frame=28476 fps=476 q=-0.0 size=N/A time=00:19:47.68 bitrate=N/A speed=19.8x    frame=28691 fps=475 q=-0.0 size=N/A time=00:19:56.65 bitrate=N/A speed=19.8x    frame=28974 fps=476 q=-0.0 size=N/A time=00:20:08.45 bitrate=N/A speed=19.9x    frame=29260 fps=477 q=-0.0 size=N/A time=00:20:20.38 bitrate=N/A speed=19.9x    frame=29540 fps=477 q=-0.0 size=N/A time=00:20:32.06 bitrate=N/A speed=19.9x    frame=29805 fps=477 q=-0.0 size=N/A time=00:20:43.11 bitrate=N/A speed=19.9x    frame=30048 fps=477 q=-0.0 size=N/A time=00:20:53.25 bitrate=N/A speed=19.9x    frame=30281 fps=477 q=-0.0 size=N/A time=00:21:02.97 bitrate=N/A speed=19.9x    frame=30514 fps=477 q=-0.0 size=N/A time=00:21:12.68 bitrate=N/A speed=19.9x    frame=30734 fps=477 q=-0.0 size=N/A time=00:21:21.86 bitrate=N/A speed=19.9x    frame=30949 fps=476 q=-0.0 size=N/A time=00:21:30.83 bitrate=N/A speed=19.9x    frame=31171 fps=476 q=-0.0 size=N/A time=00:21:40.09 bitrate=N/A speed=19.8x    frame=31423 fps=476 q=-0.0 size=N/A time=00:21:50.60 bitrate=N/A speed=19.8x    frame=31682 fps=476 q=-0.0 size=N/A time=00:22:01.40 bitrate=N/A speed=19.9x    frame=31938 fps=476 q=-0.0 size=N/A time=00:22:12.08 bitrate=N/A speed=19.9x    frame=32195 fps=476 q=-0.0 size=N/A time=00:22:22.79 bitrate=N/A speed=19.9x    frame=32452 fps=477 q=-0.0 size=N/A time=00:22:33.51 bitrate=N/A speed=19.9x    frame=32683 fps=476 q=-0.0 size=N/A time=00:22:43.15 bitrate=N/A speed=19.9x    frame=32935 fps=476 q=-0.0 size=N/A time=00:22:53.66 bitrate=N/A speed=19.9x    frame=33220 fps=477 q=-0.0 size=N/A time=00:23:05.55 bitrate=N/A speed=19.9x    frame=33444 fps=477 q=-0.0 size=N/A time=00:23:14.89 bitrate=N/A speed=19.9x    frame=33588 fps=475 q=-0.0 size=N/A time=00:23:20.89 bitrate=N/A speed=19.8x    frame=33733 fps=474 q=-0.0 size=N/A time=00:23:26.94 bitrate=N/A speed=19.8x    frame=33856 fps=472 q=-0.0 size=N/A time=00:23:32.07 bitrate=N/A speed=19.7x    frame=33994 fps=471 q=-0.0 size=N/A time=00:23:37.83 bitrate=N/A speed=19.6x    frame=34134 fps=469 q=-0.0 size=N/A time=00:23:43.67 bitrate=N/A speed=19.6x    frame=34265 fps=468 q=-0.0 size=N/A time=00:23:49.13 bitrate=N/A speed=19.5x    frame=34401 fps=466 q=-0.0 size=N/A time=00:23:54.80 bitrate=N/A speed=19.4x    frame=34522 fps=465 q=-0.0 size=N/A time=00:23:59.85 bitrate=N/A speed=19.4x    frame=34668 fps=463 q=-0.0 size=N/A time=00:24:05.94 bitrate=N/A speed=19.3x    frame=34838 fps=462 q=-0.0 size=N/A time=00:24:13.03 bitrate=N/A speed=19.3x    frame=34984 fps=461 q=-0.0 size=N/A time=00:24:19.12 bitrate=N/A speed=19.2x    frame=35135 fps=460 q=-0.0 size=N/A time=00:24:25.42 bitrate=N/A speed=19.2x    frame=35275 fps=459 q=-0.0 size=N/A time=00:24:31.26 bitrate=N/A speed=19.1x    frame=35435 fps=458 q=-0.0 size=N/A time=00:24:37.93 bitrate=N/A speed=19.1x    [Parsed_ssim_10 @ 0000017332874f00] SSIM Y:0.994873 (22.901638) U:0.995445 (23.415091) V:0.995025 (23.032287) All:0.994994 (23.005020)
[out#0/null @ 0000017325af6540] video:15262KiB audio:277812KiB subtitle:0KiB other streams:0KiB global headers:0KiB muxing overhead: unknown
frame=35520 fps=457 q=-0.0 Lsize=N/A time=00:24:41.48 bitrate=N/A speed=19.1x    
